<?xml version="1.0" encoding="UTF-8" standalone="no"?>
<!-- Created with Inkscape (http://www.inkscape.org/) -->

<svg
   width="128"
   height="128"
   viewBox="0 0 33.866666 33.866666"
   version="1.1"
   id="svg1"
   inkscape:version="1.3.2 (091e20ef0f, 2023-11-25, custom)"
   sodipodi:docname="favicon.svg"
   xmlns:inkscape="http://www.inkscape.org/namespaces/inkscape"
   xmlns:sodipodi="http://sodipodi.sourceforge.net/DTD/sodipodi-0.dtd"
   xmlns="http://www.w3.org/2000/svg"
   xmlns:svg="http://www.w3.org/2000/svg">
  <sodipodi:namedview
     id="namedview1"
     pagecolor="#ffffff"
     bordercolor="#000000"
     borderopacity="0.25"
     inkscape:showpageshadow="2"
     inkscape:pageopacity="0.0"
     inkscape:pagecheckerboard="0"
     inkscape:deskcolor="#d1d1d1"
     inkscape:document-units="px"
     inkscape:zoom="0.8222573"
     inkscape:cx="101.54972"
     inkscape:cy="101.54972"
     inkscape:window-width="1920"
     inkscape:window-height="1151"
     inkscape:window-x="1920"
     inkscape:window-y="182"
     inkscape:window-maximized="1"
     inkscape:current-layer="layer1" />
  <defs
     id="defs1">
    <filter
       style="color-interpolation-filters:sRGB"
       inkscape:label="Drop Shadow"
       id="filter15"
       x="-0.17868704"
       y="-0.17868704"
       width="1.3573741"
       height="1.3573741">
      <feFlood
         result="flood"
         in="SourceGraphic"
         flood-opacity="0.329412"
         flood-color="rgb(0,0,0)"
         id="feFlood14" />
      <feGaussianBlur
         result="blur"
         in="SourceGraphic"
         stdDeviation="15.186908"
         id="feGaussianBlur14" />
      <feOffset
         result="offset"
         in="blur"
         dx="0.000000"
         dy="0.000000"
         id="feOffset14" />
      <feComposite
         result="comp1"
         operator="in"
         in="flood"
         in2="offset"
         id="feComposite14" />
      <feComposite
         result="comp2"
         operator="over"
         in="SourceGraphic"
         in2="comp1"
         id="feComposite15" />
    </filter>
  </defs>
  <g
     inkscape:label="Capa 1"
     inkscape:groupmode="layer"
     id="layer1"
     transform="translate(-78.170761,-121.56242)">
    <g
       id="g4"
       transform="matrix(0.16602935,0,0,0.16602935,73.852338,117.244)">
      <rect
         class="a"
         x="26.01"
         y="26.01"
         width="203.98"
         height="203.98"
         rx="37.849998"
         id="rect14"
         style="fill:#fafafa" />
      <path
         class="b"
         d="m 197.63,116.58 a 2.28,2.28 0 0 1 2.15,2.46 v 6.6 a 2,2 0 0 1 -2.3,2.3 h -28.55 c -7.06,0 -11.2,2.45 -11.2,8 v 2 c 0,4.3 2,8 9.52,10.74 l 20.41,8.14 C 201.77,162.16 203,170 203,178.42 v 1.69 c 0,17.19 -10.28,20.56 -31,20.56 -13.35,0 -25.47,-1.07 -28.08,-1.38 -1.84,-0.15 -2.3,-1.07 -2.3,-2.3 v -6.75 a 2,2 0 0 1 2.3,-2.3 h 28.39 c 12.28,0 16.11,-1.38 16.11,-8 v -1.84 c 0,-4.45 -1.84,-7.37 -8.9,-10.28 l -21.79,-8.29 C 145.92,155 143,146.05 143,137.61 v -3.23 c 0,-16.88 14.73,-19.18 31.15,-19.18 a 195,195 0 0 1 23.48,1.38 z"
         id="path16"
         style="fill:#303030" />
      <path
         class="c"
         d="m 190.69,59.34 a 25.27,25.27 0 0 0 -16,-5.68 H 78.24 a 25.37,25.37 0 0 0 -11.82,2.92 25.7,25.7 0 0 0 -10.25,9.93 c -0.46,0.82 -0.87,1.66 -1.25,2.5 -0.22,0.59 -0.47,1.15 -0.67,1.72 A 26.9,26.9 0 0 0 52.87,79 v 96.48 a 25.35,25.35 0 0 0 25.37,25.35 h 51.5 a 1.37,1.37 0 0 0 1.37,-1.37 v -6.15 a 1.37,1.37 0 0 0 -1.37,-1.37 h -6.68 l -20,-40.41 45.51,-60.31 a 5.17,5.17 0 0 0 0.85,-1.77 l 41.7,6.38 v 9.38 a 1.38,1.38 0 0 0 1.37,1.37 h 6.19 a 1.37,1.37 0 0 0 1.36,-1.37 V 79 a 25.25,25.25 0 0 0 -9.35,-19.66 z m -52.52,3.24 2.15,17.19 -33.71,-5.16 -1.52,-12 z m -59.93,0 h 18.58 l 1.33,10.75 -24.63,-3.77 -7.77,-1.2 A 16.33,16.33 0 0 1 78.24,62.58 Z M 97,81.46 79.82,104.31 66.21,76.74 Z m -35.21,4.88 11,22.32 -11,1.35 z m 0,32 14.84,-1.88 15.37,31.12 -30.22,3.8 z M 113.89,192 H 79.61 A 17.87,17.87 0 0 1 61.79,174.17 v -14.51 l 34.05,-4.27 z m -14.83,-48.67 -15.2,-30.8 22.34,-29.6 c 0,0 0,0 0,-0.05 l 34.45,5.27 z m 92.11,-55.79 -42.42,-6.49 -2.31,-18.47 h 26.92 a 17.87,17.87 0 0 1 17.81,17.82 z"
         id="path18"
         style="fill:#8c0000" />
    </g>
  </g>
</svg>
