<?xml version="1.0" encoding="UTF-8" standalone="no"?>
<svg
   width="64"
   height="64"
   version="1.1"
   id="svg4"
   sodipodi:docname="icon_donations.svg"
   inkscape:version="1.3.2 (091e20ef0f, 2023-11-25, custom)"
   xmlns:inkscape="http://www.inkscape.org/namespaces/inkscape"
   xmlns:sodipodi="http://sodipodi.sourceforge.net/DTD/sodipodi-0.dtd"
   xmlns="http://www.w3.org/2000/svg"
   xmlns:svg="http://www.w3.org/2000/svg">
  <sodipodi:namedview
     id="namedview4"
     pagecolor="#ffffff"
     bordercolor="#000000"
     borderopacity="0.25"
     inkscape:showpageshadow="2"
     inkscape:pageopacity="0.0"
     inkscape:pagecheckerboard="0"
     inkscape:deskcolor="#d1d1d1"
     inkscape:zoom="10.584861"
     inkscape:cx="32.310297"
     inkscape:cy="29.428823"
     inkscape:window-width="1920"
     inkscape:window-height="1151"
     inkscape:window-x="1920"
     inkscape:window-y="182"
     inkscape:window-maximized="1"
     inkscape:current-layer="svg4" />
  <defs
     id="defs2">
    <filter
       id="a"
       width="1.552329"
       height="1.2008831"
       x="-0.33813887"
       y="-0.12216475"
       style="color-interpolation-filters:sRGB">
      <feFlood
         flood-color="#000"
         flood-opacity=".22"
         result="flood"
         id="feFlood1" />
      <feGaussianBlur
         in="SourceGraphic"
         result="blur"
         stdDeviation="2.6"
         id="feGaussianBlur1" />
      <feOffset
         dx="-3.611"
         dy="-3.444"
         in="blur"
         result="offset"
         id="feOffset1" />
      <feComposite
         in="flood"
         in2="offset"
         operator="out"
         result="comp1"
         id="feComposite1" />
      <feComposite
         in="comp1"
         in2="SourceGraphic"
         operator="atop"
         result="comp2"
         id="feComposite2" />
    </filter>
  </defs>
  <g
     id="g1">
    <path
       d="m 947.67,991.135 h 29.133 v 79.27 H 947.67 Z"
       style="opacity:0.634913;fill:#ffeeaa;fill-opacity:1;stroke-width:0.338763;filter:url(#a)"
       transform="matrix(0.37627229,0,0,0.35065639,-352.8753,-317.43837)"
       id="path2" />
    <path
       d="m 1056.074,934.9 q 7.792,-8.808 19.648,-8.808 9.824,0 16.6,7.114 6.775,7.114 7.114,16.6 0,7.453 -7.114,17.785 -7.114,10.332 -14.228,17.277 -7.114,6.945 -22.02,20.495 -14.906,-13.55 -22.02,-20.495 -7.114,-6.945 -14.228,-17.277 -7.114,-10.332 -7.114,-17.785 0,-9.824 7.114,-16.6 7.114,-6.775 16.938,-7.114 11.518,0 19.31,8.808"
       style="opacity:0.834711;fill:#ffffff;fill-opacity:1;stroke-width:0.338763;filter:url(#a)"
       transform="matrix(0.37627229,0,0,0.35065639,-352.8753,-317.43837)"
       id="path3" />
    <path
       d="m 1085.208,1034.497 q 6.097,0 10.332,4.234 4.234,4.235 4.234,9.994 l -57.928,21.68 -50.815,-14.227 v -65.043 h 14.228 l 52.509,19.31 q 5.759,2.37 5.759,8.13 0,3.387 -2.541,5.928 -2.541,2.541 -6.267,2.54 h -20.326 l -12.534,-4.742 -2.372,6.776 14.906,5.42 z"
       style="opacity:0.634913;fill:#ffeeaa;fill-opacity:1;stroke-width:0.338763;filter:url(#a)"
       transform="matrix(0.37627229,0,0,0.35065639,-352.8753,-317.43837)"
       id="path4" />
  </g>
</svg>
